<svg xmlns="http://www.w3.org/2000/svg" version="1.1" viewBox="-5.0 -10.0 110.0 135.0">
 <path d="m71.875 9.375c-8.9688 0-16.828 3.625-21.875 9.9062-5.0469-6.2812-12.906-9.9062-21.875-9.9062-15.188 0-25 10.609-25 27.031 0 29.797 43.578 52.891 45.422 53.859 0.45312 0.23438 0.95312 0.35938 1.4531 0.35938s1-0.125 1.4531-0.35938c1.8438-0.96875 45.422-24.062 45.422-53.859 0-16.422-9.8125-27.031-25-27.031zm-21.875 74.562c-7.4062-4.2031-40.625-24.297-40.625-47.531 0-13.016 7.0156-20.781 18.75-20.781 4.0625 0 14.062 1.0469 19.094 10.797 0.54688 1.0469 1.6094 1.7031 2.7812 1.7031s2.2344-0.65625 2.7812-1.6875c5.0312-9.7656 15.031-10.812 19.094-10.812 11.734 0 18.75 7.7656 18.75 20.781 0 23.234-33.219 43.328-40.625 47.531z"/>
<text x="0.0" y="117.5" font-size="5.0" font-weight="bold" font-family="Arbeit Regular, Helvetica, Arial-Unicode, Arial, Sans-serif" fill="#000000">Created by wahyu fadil</text><text x="0.0" y="122.5" font-size="5.0" font-weight="bold" font-family="Arbeit Regular, Helvetica, Arial-Unicode, Arial, Sans-serif" fill="#000000">from Noun Project</text></svg>